<svg viewBox="0 0 152 152">
  <path id="icon"
    d="m76 0a76 76 0 1 0 76 76 76 76 0 0 0 -76-76zm-40.65 77.71c-4.39.85-4.71-2.38-4.57-4.18a3.48 3.48 0 0 1 .71-1.83l7.8-10a3.39 3.39 0 0 0 -.06-4.25l-7.69-9.28a3.3 3.3 0 0 1 -.76-1.8c-.29-3.56 2.49-4.31 4.16-4.44a3.36 3.36 0 0 1 2 .5l23.39 14.41c3.91 2.41 1 5.06.19 5.7a3.62 3.62 0 0 1 -.32.22l-23.76 14.52a3.11 3.11 0 0 1 -1.09.43zm73.35 43.71a89.78 89.78 0 0 0 -32.7-5.94 89.73 89.73 0 0 0 -32.69 5.94 3.82 3.82 0 0 1 -5.3-3.49 3.88 3.88 0 0 1 0-.48 38.41 38.41 0 0 1 75.91 0 4 4 0 0 1 0 .49 3.82 3.82 0 0 1 -5.22 3.48zm8-43.71a3 3 0 0 1 -1.09-.43l-23.8-14.52a3.62 3.62 0 0 1 -.32-.22c-.81-.64-3.72-3.29.19-5.7l23.38-14.36a3.41 3.41 0 0 1 2-.5c1.67.13 4.45.88 4.15 4.44a3.16 3.16 0 0 1 -.76 1.8l-7.68 9.28a3.37 3.37 0 0 0 -.06 4.25l7.79 10a3.41 3.41 0 0 1 .72 1.83c.15 1.75-.17 4.98-4.56 4.13z">
  </path>

</svg>
