<svg viewBox="0 0 152 152">
  <path
    d="m76 0a76 76 0 1 0 76 76 76 76 0 0 0 -76-76zm-46.75 50.46c4.48-9.23 13.55-6.66 14.67-6.3.26-1.15 2.69-10.26 12.91-9.4 0 0 10 1.37 8.2 13.16l-5.9 22.48.24.41-.37-.09-.08.33-.24-.42-22.34-6.4c-11.03-4.46-7.09-13.77-7.09-13.77zm89.54 44.92c-3.19 18.21-21.13 30.84-42.79 30.84s-39.6-12.63-42.8-30.84a3.64 3.64 0 0 1 -.05-.56c0-2.63 3.2-4.33 6-3.37 10.79 3.73 23.39 5.63 36.85 5.63s26.05-1.9 36.86-5.63c2.79-1 6 .73 6 3.37a2.74 2.74 0 0 1 -.07.56zm-3.17-31.15-22.34 6.4-.24.42-.04-.33-.33.09.24-.41-5.91-22.48c-1.81-11.79 8.2-13.16 8.2-13.16 10.22-.86 12.64 8.25 12.91 9.4 1.12-.36 10.19-2.93 14.67 6.3-.03 0 3.9 9.31-7.16 13.77z">
  </path>
</svg>
